<svg xmlns="http://www.w3.org/2000/svg" viewBox="0 0 272.98 295.89"><defs><style>.cls-1{fill:#2F2C3F;}</style></defs><title>altSnafu</title><g id="Layer_2" data-name="Layer 2"><g id="Layer_1-2" data-name="Layer 1"><path class="cls-1" d="M198.46,185a83.47,83.47,0,0,1-32,6.39h0a83.71,83.71,0,1,1,82.29-99H273a107.63,107.63,0,1,0-106.55,123h0a107.75,107.75,0,0,0,32-4.84Z"/><path class="cls-1" d="M0,188.27A107.63,107.63,0,1,1,107.64,295.89h0A107.74,107.74,0,0,1,0,188.27Zm191.33,0A83.71,83.71,0,1,0,107.61,272h0a83.8,83.8,0,0,0,83.71-83.7Z"/><rect class="cls-1" y="36.89" width="23.91" height="151"/></g></g></svg>